<svg xmlns="http://www.w3.org/2000/svg" viewBox="0 0 512 512"><circle cx="256" cy="256" r="256" fill="#ffda44"/><path d="M14.6 341.3h482.8c6.4-18.1 10.8-37.2 13-56.9H1.6c2.2 19.8 6.6 38.8 13 56.9zM95.1 455.1h321.8c20-16.2 37.6-35.4 52-56.9H43.1c14.4 21.5 32 40.7 52 56.9zM497.4 171.2H14.6c-6.4 18.1-10.8 37.2-13 56.9h508.8c-2.2-19.7-6.6-38.8-13-56.9zM416.9 57.4H95.1c-20 16.2-37.6 35.4-52 56.9h425.8c-14.4-21.5-32-40.6-52-56.9z" fill="#d80027"/><circle cx="256" cy="256" r="256" fill="none" stroke="#2F5567" stroke-width="8"/></svg>
